<?xml version="1.0" encoding="UTF-8" standalone="no"?>
<svg
   width="17.76"
   height="19.996218"
   version="1.1"
   id="svg4"
   sodipodi:docname="cpp.svg"
   inkscape:version="1.2.1 (9c6d41e410, 2022-07-14, custom)"
   xmlns:inkscape="http://www.inkscape.org/namespaces/inkscape"
   xmlns:sodipodi="http://sodipodi.sourceforge.net/DTD/sodipodi-0.dtd"
   xmlns="http://www.w3.org/2000/svg"
   xmlns:svg="http://www.w3.org/2000/svg">
  <defs
     id="defs8" />
  <sodipodi:namedview
     id="namedview6"
     pagecolor="#505050"
     bordercolor="#ffffff"
     borderopacity="1"
     inkscape:showpageshadow="0"
     inkscape:pageopacity="0"
     inkscape:pagecheckerboard="1"
     inkscape:deskcolor="#505050"
     showgrid="false"
     inkscape:zoom="42.791667"
     inkscape:cx="8.8802337"
     inkscape:cy="10.013632"
     inkscape:window-width="2560"
     inkscape:window-height="1371"
     inkscape:window-x="0"
     inkscape:window-y="0"
     inkscape:window-maximized="1"
     inkscape:current-layer="svg4" />
  <!-- source: Boxicons https://boxicons.com/, MIT Licensed  -->
  <path
     d="m 17.54,4.9981093 a 1.51,1.51 0 0 0 -0.55,-0.57 L 9.65,0.18810932 a 1.67,1.67 0 0 0 -1.54,0 L 0.77,4.4281093 a 1.68,1.68 0 0 0 -0.77,1.33 v 8.4799997 a 1.57,1.57 0 0 0 0.22,0.76 1.51,1.51 0 0 0 0.55,0.57 l 7.34,4.24 a 1.67,1.67 0 0 0 1.54,0 l 7.34,-4.24 a 1.51,1.51 0 0 0 0.55,-0.57 1.57,1.57 0 0 0 0.22,-0.76 V 5.7581093 a 1.57,1.57 0 0 0 -0.22,-0.76 z M 8.88,15.918109 a 5.92,5.92 0 1 1 5.13,-8.9199997 l -1.13,0.71 -0.36,0.2 -1,0.61 a 3,3 0 0 0 -5.64,1.48 2.88,2.88 0 0 0 0.4,1.4799997 3,3 0 0 0 5.13,0 l 2.6,1.52 a 5.94,5.94 0 0 1 -5.13,2.92 z m 5.92,-5.59 h -0.66 v 0.67 h -0.65 v -0.66 H 12.88 V 9.6781093 h 0.66 v -0.68 h 0.65 v 0.66 h 0.66 z m 2.47,0 h -0.66 v 0.67 h -0.66 v -0.66 H 15.3 V 9.6781093 h 0.65 v -0.68 h 0.66 v 0.66 h 0.66 z"
     id="path2" />
</svg>
